<?xml version="1.0" encoding="UTF-8"?>
<svg id="Layer_1" xmlns="http://www.w3.org/2000/svg" version="1.1" xmlns:xlink="http://www.w3.org/1999/xlink" viewBox="0 0 1600 500">
  <!-- Generator: Adobe Illustrator 29.3.1, SVG Export Plug-In . SVG Version: 2.1.0 Build 151)  -->
  <defs>
    <style>
      .st0 {
        fill: #874c2c;
      }

      .st1 {
        fill: #bab8f4;
      }

      .st2 {
        fill: #6864e8;
      }

      .st3 {
        fill: #fff;
      }

      .st4 {
        fill: #e5a980;
      }

      .st5 {
        fill: #bf7b4c;
      }

      .st6 {
        fill: #d8905f;
      }

      .st7 {
        fill: #ed985f;
      }

      .st8 {
        fill: #0e0e52;
      }

      .st9 {
        fill: #ebf3fa;
      }

      .st10 {
        fill: #ffb27d;
      }

      .st11 {
        fill: #5050a0;
      }

      .st12 {
        fill: #ecc19f;
      }

      .st13 {
        fill: #98baf4;
      }

      .st14 {
        fill: #151568;
      }

      .st15 {
        fill: #774028;
      }
    </style>
  </defs>
  <g id="bg">
    <rect class="st2" y="-9" width="1600" height="508.5"/>
    <path class="st9" d="M1832,402.6c-.9,45.4-13.5,86.8-33,127.6h-902.1c-.2,0-.4-.3-.5-.4-21.5-17-29.3-41.7-24.6-69.3h0c5.1-30,24.9-62.7,55.5-90.3,29.4-29.2,62.5-17.4,62.8-87.4,0-5.4-.5-10.9-1.7-16.2-4.6-21-2.8-40,3-57,20.4-59.1,89.9-94,108.4-101.9,61.7-26.2,139.6-31.9,205.2-17.9,105.3,22.5,144.6,54.6,176.1,87.4,11.7,12.2,22.6,20.5,35.9,21.3,21.8,1.4,52.9-10.6,90.6-14,28.2-2.6,60-.6,94.4,15.4,37.7,17.4,74.8,51.3,95.8,82.3,24.3,35.9,35.1,76.7,34.3,120.2v.2h-.1Z"/>
  </g>
  <g id="Layer_2">
    <g>
      <rect class="st13" x="1348.4" y="311.9" width="17.7" height="27.9"/>
      <path class="st3" d="M1347.4,340.7v-29.7h19.4M1349.2,338.9h15.9v-26.1h-15.9v26.1Z"/>
      <rect class="st3" x="1348.9" y="321.2" width="16.3" height="1.4"/>
      <rect class="st3" x="1348.9" y="330.5" width="16.3" height="1.4"/>
      <rect class="st3" x="1356.4" y="311.8" width="1.4" height="28"/>
      <rect class="st13" x="1450.5" y="311.9" width="17.7" height="27.9"/>
      <path class="st3" d="M1468.9,340.7h-19.4v-29.7h19.4v29.7ZM1451.2,338.9h15.9v-26.1h-15.9v26.1Z"/>
      <rect class="st3" x="1451" y="321.2" width="16.3" height="1.4"/>
      <rect class="st3" x="1451" y="330.5" width="16.3" height="1.4"/>
      <rect class="st3" x="1458.4" y="311.8" width="1.4" height="28"/>
      <rect class="st3" x="1356.4" y="407.4" width="1.4" height="28"/>
      <path class="st0" d="M1264,314.4s3.3,11.6,2.5,14.4c-.8,2.9-4.2,8.3-5.8,8.1s0-18.5,0-18.5l3.3-4.1h0Z"/>
      <path class="st8" d="M1208.2,224.9c-1.2-2.3,26.1-10.6,26.6,12.2,0,0,51.2-1.3,26.7-29.8-8.5-9.9-7.6-18-7.3-25.7s-5.3-29.7-24.2-27.5c0,0-5-2-11.2,1.2-14.1,7.3-45.6,77.9-10.6,69.5h0Z"/>
      <path class="st1" d="M1266.5,317.8s-.3,1.4-3.2,2.1c-1.3.3-3.2.5-5.9.3-.6,0-1.2,0-1.8-.2-1.2-.1-2.6-.3-4.1-.6l1-62.6-4.4-48.9s9.4,4.5,14,18.9c3.6,11.1,4.1,58.8,4.2,80.4v10.6h.2Z"/>
      <path class="st2" d="M1266.5,317.8s-.3,1.4-3.2,2.1c-1.3.3-3.2.5-5.9.3l.9-46.7s.7,25.5,8.2,33.6v10.6h0Z"/>
      <path class="st8" d="M1173.6,450.3s-5.7,5.2-4.6,9c1.1,3.7,6.3,6.2,7,10.8.7,4.5,3.5,7,6,7h12s1.8-3.2-2.6-4.1-6.2-6.3-5.9-11.3-.4-11.6-.4-11.6l-9.5-2.2-1.9,2.5h0Z"/>
      <path class="st8" d="M1222.1,452.5s-2.1,22.2.5,23.4h32.2s0-3.8-5.2-4.6c-5.2-.8-14.3-3.9-15.8-10.6-1.5-6.8-11.7-8.2-11.7-8.2h0Z"/>
      <path class="st14" d="M1248.4,270.6s9.3,28.9,9.9,38.7c.6,9.9-17.7,139.8-18.5,144.3-.7,4.3-6,7-6,7,0,0-2.4,1.4-5.9.5-4.8-1.4-6.3-3-6.3-3,0,0-7.2-92.7-2.7-125.8,4.5-33.1,4.5-61.7,4.5-61.7h25.1,0Z"/>
      <path class="st14" d="M1209.1,269.8s-14.2,19-15.5,31.9-2.1,58-4.9,70.5-13.1,36.6-13.1,75.7c0,0,1.1,2.3,4.4,3.4,1.1.4,2.5.8,3.9,1.1,2.7.6,5.5-.7,6.8-3.2,7-14.1,29.3-59.4,30.4-68.9.8-6.7,5.5-46.7,20.9-72.6,3.7-6.2,3.5-33.3,3.5-33.3l-36.3-4.6h-.1Z"/>
      <path class="st14" d="M1197.3,232.5s-.5,6.8,0,14.9c.3,5.4,5.8,12.6,6.5,14.4,1.9,4.5,4.1,5.2,4.1,5.2l16.9,4.1,1.4,9s14.2,6.1,24-3.3c8.6-8.1,7.8-33.7,4.4-47.1-3.4-13.4-8.7-22.7-8.7-22.7,0,0-12.7-5-35.2-1.3l-13.5,26.8h0Z"/>
      <path class="st1" d="M1216.9,204.4s-7.1,1.2-11.4,2.6l-3.2,39h29.4l-11-28.9-3.7-12.6h-.1Z"/>
      <path class="st1" d="M1231.7,246l-3.2,120.1s-16.1,7.7-46.8,0l7.9-127.9,42.1,7.7h0Z"/>
      <path class="st2" d="M1182,273.9l21.7,18.9c1.6,1.4,4,1.2,5.3-.4l27.7-31.9c1.4-1.6,1.2-4-.4-5.3l-21.7-18.9c-1.6-1.4-4-1.2-5.3.4l-27.7,31.9c-1.4,1.6-1.2,4,.4,5.3Z"/>
      <path class="st0" d="M1214.2,271.5c.3,0,11.6,1.4,11.6,3.7s-3.3,6.3-6.4,6.1c-1.3,0-7.1-5.4-7.1-5.4l1.9-4.5h0Z"/>
      <path class="st0" d="M1220,204.5c1.3-3.1,2-7.8,2-13.7l.9.2,14.3,2.8s-.3,4.5-.3,8.7h0c0,3.8,2.5,7.5-3.4,8.9-1.8.5-16.1-.5-13.4-7h0Z"/>
      <path class="st15" d="M1237.1,193.8s-.3,4.5-.3,8.7c-8-.2-12.2-7.5-14-11.6l14.3,2.8h0Z"/>
      <path class="st0" d="M1239.8,197.8s-18.9.3-18.9-11.5-2.5-19.7,9.6-20.3,14.4,3.8,15.4,7.7c.9,3.9-1.2,23.7-6.1,24.1h0Z"/>
      <path class="st8" d="M1239,165.8s-5.2,13.8-13.1,15.8-11.4,0-11.4,0c0,0,6.1-4.9,7.3-13.3,0,0,13.2-9,17.1-2.5h0Z"/>
      <path class="st8" d="M1237.8,166.8s3.8,1.4,5.4,4.2c1.5,2.7,2.9,6.3,2.6,10.8,0,0,3.9-9.4-.5-14.7-4.6-5.6-7.5-.4-7.5-.4h0Z"/>
      <path class="st0" d="M1214.2,271.5s2.7-.9,4.5-.6,3.2,0,3.2.5-2.3.7-2.8,1c-.5.2-4.8-.9-4.8-.9h0Z"/>
      <path class="st1" d="M1210.8,205.8s-13.4.9-18.5,13.5c-5.1,12.5-14.9,33.5-14.9,37s5.4,14.4,34.7,20.7c0,0,3-3.2,2.8-5.7,0,0-18.3-15.7-18.2-17.6,0-3.5,3-8.1,19-24.1,4.4-4.4-4.9-23.8-4.9-23.8h0Z"/>
      <path class="st2" d="M1225,225.4s-5-13.8-4.1-24.2c0,0-3.9,1-6,3.9,0,0-.9,15.9,2,23.2,0,0,4.3.2,5.2-.3,0,0-1.9,3.2-1.6,3.6.3.4,11,14.4,11,14.4l-6.7-20.6h.2Z"/>
      <path class="st1" d="M1247.2,239.8l3.2,123.5s7.5.3,11.8-4.3l-4-133.8s-4.1-16.1-12.2-18.1l-8.1-2,9.3,34.8h0Z"/>
      <path class="st2" d="M1236.7,202.6s0,1.9.5,5.4c1.4,9.3,11.3,27.9,10.1,36.3,0,0,1-14.5,1-17.6l-2.9-2,3.7-1.5s-7-17.5-12.5-20.5h.1Z"/>
      <path class="st2" d="M1193.7,319.3s-2,17.4,0,18.9,23.4,3.6,25.3,2c2-1.6,2.7-18.9,2.7-18.9l-28-2h0Z"/>
      <path class="st8" d="M1328.2,168.9s-5.1-10.8-4.1-16.6c1-5.7.8-13.3,8.4-16.3,7.7-2.9,8.3,0,16.6-1,8.1-.9,10.9,9.3,11.7,13.7,1.6,9.1-1.1,14.9-3.6,18-2.1,2.7-3.1,4-3.1,4l-26.1-1.8h.2Z"/>
      <path class="st8" d="M1306.9,475.9s0-5.4.8-7.2,3.6-9,3.6-9h10.9s2,6.6,2.2,8.8,0,7.4,0,7.4h-17.5Z"/>
      <path class="st8" d="M1376.4,475.9s0-5.4-.8-7.2-3.6-9-3.6-9h-10.9s-2,6.6-2.2,8.8,0,7.4,0,7.4h17.5Z"/>
      <path class="st14" d="M1308.3,290.3s1.9,58.5-.9,91.9c-2.9,33.3,0,79.8,0,79.8,0,0,9.2,5,19.1,0,0,0,10.9-64.4,10.8-79.8,0-16.3,11.8-89.3,11.8-89.3l-40.8-2.6h0Z"/>
      <path class="st14" d="M1376,462s-9.1,5-19.1,0c0,0-10.9-64.4-10.8-79.8,0-6.9-2.1-23.9-4.5-41.2-3.3-23.7-7.3-48.1-7.3-48.1l42.4-2.7s-3.5,58.6-.6,91.9,0,79.8,0,79.8h0Z"/>
      <path class="st1" d="M1316.5,195.2s-15.8,1.9-19.3,16.1-17.1,50.2-3.5,58.3c0,0,14.4-19.4,19.9-34.9,5.5-15.6,2.8-39.5,2.8-39.5h0Z"/>
      <path class="st1" d="M1370.2,202.8s15.9-2,19.4,12.2,14.5,45.8.9,54c0,0-15.4-18.7-20.9-34.2-5.5-15.6.6-31.9.6-31.9h0Z"/>
      <path class="st6" d="M1332.6,175.2s-.4,11.9-1.9,17.3l-12.1,8.4,45.5,6.8-10.8-15s-3.3-16-1.6-21.9c1.7-5.9-19.1,4.4-19.1,4.4h0Z"/>
      <path class="st5" d="M1332.5,176.8s3.6,8.6,10.4,8.5c6.8-.2,8.3-7.9,8.3-7.9l-18.7-.6h0Z"/>
      <path class="st6" d="M1342.1,181.9c-4.9,0-14-6.6-14-14.7v-12.6c0-3,2.1-5.4,4.6-5.4h18.7c2.5,0,4.6,2.4,4.6,5.4v11.9c0,8.5-8.3,15.5-14,15.4h.1Z"/>
      <path class="st14" d="M1377.3,316.4c-35.1,6.1-72.8,1.2-72.8,1.2l3.5-71c0-1-.2-2.1-.2-3.2v-5c.7-14.9,5.2-41.7,8.6-43.2,0,0,5.1-1.9,14.1-2.8,0,.2,5.2,7.8,11.4,8.7,3.9-1.5,6.9-2.8,11.1-8.5,2.5.3,5.1.6,7.8,1.2.2,0,.4,0,.6.1,3,.6,6.3,1.4,9.7,2.5,0,0,4.5,1.7,3.5,32.9l2.4,87.1h.3Z"/>
      <path class="st3" d="M1338.2,173.8s1.5,2.1,4.2,2c2.7,0,3.9-2,3.9-2,0,0-4.5-.7-8.1,0h0Z"/>
      <path class="st1" d="M1304.5,261.9l-2,105.7s15.8,4.1,29.5,5l3.5-129.2-4.9-43.7-4.4-7.2s-14.6,1.1-23.3,8.2c-5.9,4.9-8.7,21.4-8.7,21.4l13.7,14.4-3.5,25.5h.1Z"/>
      <path class="st1" d="M1379.5,261.9l2,105.7s-15.8,4.1-29.5,5l-2.9-125.4,4.2-47.6,4.4-7.2s14.5,1.2,23.3,8.2c9.4,7.6,11.3,26.2,11.3,26.2l-16.3,9.6,3.5,25.5h0Z"/>
      <path class="st6" d="M1293.8,269.6c15.9,4.3,24.9-6.8,62.2-22.1l-1.1-5.9s-42.9.5-50.4,4.6c-9.8,5.3-12,23.2-10.7,23.5h0Z"/>
      <path class="st6" d="M1324.9,237.5s-16.1-.9-16.3,7.3l14.9-.7,1.4-6.6h0Z"/>
      <path class="st5" d="M1367.6,241.7s12.1-3.1,14.1,5-17.3,0-17.3,0l3.2-5h0Z"/>
      <path class="st5" d="M1337.4,255.8s-4.6-5.5-15.7-12.5l18.8,3.6,5.8,4.7-2.6,1.4-6.3,2.9h0Z"/>
      <polygon class="st5" points="1356.4 242.3 1372.5 241.1 1371.3 245.7 1356.4 242.3"/>
      <path class="st5" d="M1308.7,244.8s11-1.9,10.8-2-4-1.3-4.9-.9c-.9.5-5.9,2.9-5.9,2.9h0Z"/>
      <path class="st2" d="M1331.8,186.2s-6.7,3.7-7.8,7.2c0,0-3.2,14.1,1,23.5l6.8-1.7-3.5,4.3s1.8,19.5,7.3,23.8c0,0-4.3-51.9-3.8-57.2h0Z"/>
      <path class="st2" d="M1352.1,186.2s6.7,3.7,7.8,7.2c0,0,4.3,13.1,0,22.5l-7.8-.7,5.6,4.6s-3.1,23.1-8.6,27.3c0,0,3.5-55.8,3-61h0Z"/>
      <path class="st6" d="M1390.4,269s-33.1-3.6-71.9-28l6.4-3.5s50.9,5.5,57.2,10.3c10,7.5,15.8,19.4,8.3,21.2Z"/>
      <rect class="st9" x="1314.1" y="221.2" width="10.9" height="4.8"/>
      <path class="st8" d="M1335.8,149.2s5,4.5,11.4,3.6,6.3-3.6,7.2-2.4,1,10.3,2.3,10.9l.7-12.1-12.7-7.3-18.2,2.1,1.8,17.7s-.3-6.5,2.4-8.4c2.7-1.9,5.3-4.2,5.3-4.2h-.2Z"/>
      <path class="st10" d="M1430.8,238.8c-.5,1-4.3,40.5-1.4,45.7s16.7-9.9,17-35.3c.3-21.4-15.7-10.4-15.7-10.4h0Z"/>
      <rect class="st8" x="1416.3" y="260.6" width="40.1" height="56.8" transform="translate(735.5 1575.7) rotate(-72.8)"/>
      <path class="st8" d="M1429.5,466.2l5.6,2.1s24.3-33.7,27.3-63.3c.5-5.3.4-10.4-.8-15.2,0,0,.2-1.4.7-3.7.2-1.1.5-2.5.7-4,.8-4.5,1.9-10.7,3.1-17.8,2.8-16.2,6.6-36.9,9.5-52.2l-1.5-.5-16.3-5.3-3.4-10.7-12.2-3.2s-2.7,5.3-5.1,30.4c-.5,3.3-.9,6.9-1.2,10.8-.9,12-1,26.9,1.2,43.9.5,4.4,1.3,8.9,2.1,13.5.6,3.4.7,8,.5,13.3-1.2,24.2-10.1,61.9-10.1,61.9h0Z"/>
      <path class="st8" d="M1435.9,333.6l26.4,52.4c.2-1.1.5-2.5.7-4,.8-4.5,1.9-10.7,3.1-17.8,2.8-16.2,6.6-36.9,9.5-52.2l-1.5-.5-16.3-5.3-3.4-10.7-12.2-3.2s-2.7,5.3-5.1,30.4c-.5,3.3-.9,6.9-1.2,10.8h0Z"/>
      <path class="st14" d="M1447.5,299.1l.6-5.2c10.2,2.7,37.5-7.6,37.5-7.6,0,0,9.9,8.7,8.6,29.6-.6,10.2-1.8,53.5-3,66.3-.5,4.6-.8,8-1,9.3h0c0,.4,0,.8.3,1.1,1.8,3,3.2,6.2,4.5,9.4,11.9,31.7-1.8,70.7-1.8,70.7l-3.6-1.4s-7.8-43.4-14.1-62.6c-1.1-3.2-2.1-5.8-3.1-7.3-2.7-4.5-5.3-11.7-7.7-20.4-4.4-16.3-7.9-37.6-10.3-54-.3,0-7-27.8-7-27.8h0Z"/>
      <path class="st8" d="M1472.5,475.5h28.2s.7-4.3-.8-7.6c-1.4-3.1-3.6-4.5-3.1-8.3-1.8,1.8-4.7,3.9-8.8,3.4-.5.8-3.2,5.1-4.9,6.3-1.8,1.3-10,.9-10.6,6.2h0Z"/>
      <path class="st8" d="M1412,475.5h28.2s1-4.5-.8-7.6c-1.6-2.7-1-4.2.2-6.5-1.3.5-2.9,1-4.7.9-1.4,0-2.9-.7-4.2-1.5-1.2,1.4-6.4,7.2-8,8.4-1.8,1.3-10,.9-10.6,6.2h0Z"/>
      <path class="st8" d="M1478.2,154.5c.2-.8,2.9-8.8,15.5-6.1,0,0-6.3-.8-8.1,1.6,0,0,5-2.3,8.2-.4s3.6,8.5,3.2,10.4c-.5,2-4,7.8-6.3,7.8s-1.8-.3-2.6-.7c.4,1,.7,2.2.9,3.4,2.4,11.5-5.3,20.3-9.3,18.1-2.5-1.4-4.5,3.1-4.5,3.1l-21-28s14.8-17.6,23.9-9.3h.1Z"/>
      <path class="st10" d="M1460.5,229c17.4,5.4,20.2-21.8,19-22-1.9-1.7-4.4-8.1-4.3-17.8l-.9.2-14.2,2.7s.3,4.5.3,8.7-.2,6.4-.9,7.2c-1.1.1-1.8.3-1.8.3h0c-.2.3-1.9,19.3,2.7,20.7h.1Z"/>
      <path class="st7" d="M1460.1,192.2s.3,4.5.3,8.7c8-.2,12.2-7.4,13.9-11.4l-14.2,2.7h0Z"/>
      <path class="st10" d="M1457.5,196.1s18.8.4,18.9-11.3,2.5-19.6-9.5-20.3-14.4,3.7-15.3,7.7c-1,3.9,1,23.6,5.9,24h0Z"/>
      <path class="st8" d="M1452.1,165.6c2.9-3.5,5.1-2.7,6.3-1.7,10.3-5.6,16.9,2.8,16.9,2.8,1.2,8.4,7.3,13.3,7.3,13.3,0,0-3.4,2.1-11.3,0-2.4-.6-4.5-2.3-6.4-4.5,3.2,5.4,7.5,9.3,7.5,9.3-9.5-4.4-13.2-17.6-13.5-18.9-1.2,1-3.4,3.2-4.1,5.4-.9,3-1.4,9.1-3.2,8.9,0,0-3.8-9.4.5-14.6h0Z"/>
      <path class="st11" d="M1477.6,203.9s3,.9,3.1,3.1c0,0-7.9,14.8-16.7,15.7l13.6-18.7h0Z"/>
      <path class="st14" d="M1436.2,274.3l-6.8,38.8c4,2.5,7.9,4.5,11.6,6.4,1-3,2.9-6.5,3.1-6.7-.5,2,.8,6.4,1.7,8.8,34.7,14.9,55.6,3.5,55.6,3.5-5.2-38.3-1.4-101.4-2.3-105.9-1.8-8.6-18.5-12.3-18.5-12.3-6.1,10.7-16.7,15.7-16.7,15.7-4-3.9-5-14.5-5-14.5l-7,1.7c-4.5,1.1-8.7,3.3-12,6.5-.3.3-.6.6-.9.9-3.4,3.7-12.4,27.4-12.4,27.4,0,0,1.9,6.5,5.3,9.8,1.8,1.7,4.1,3.3,6.8,5l-2.6,14.9h.1Z"/>
      <path class="st11" d="M1464,222.6s-4.3-14.4-3.8-16.2c0,0-3.4.4-3.7,2.4,0,0,3.8,12,7.5,13.9h0Z"/>
      <path class="st3" d="M1461.8,189.4s-.9,1.8-2,2c-1.2.2-3,.2-3.4,0s-1.1-1.5-1.4-1.9c0,0,2.1-.2,6.5-.1h.3Z"/>
      <path class="st3" d="M1241.7,192.3s-.9,1.8-2,2c-1.2.2-3,.2-3.4,0s-1.1-1.5-1.4-1.9c0,0,2.1-.2,6.5-.1h.3Z"/>
      <path class="st11" d="M1432.1,254.5c1.8,1.6,4.1,3.3,6.8,5,0,0,5.2-19.5,3.6-20.8-1.5-1.4-4.4,11.5-10.4,15.9h0Z"/>
      <path class="st10" d="M1507.8,232.2s24.3,33.1,21.9,44.3c-1.9,9-26.5,29.5-26.5,29.5l-6.3-4.1s15.3-22.2,14-28.8c-1-5.1-16.3-24.3-16.3-24.3l13.1-16.7h.1Z"/>
      <path class="st14" d="M1491.6,211s13.5,7.2,25.1,30.2c0,0-6.8,9.1-20.5,13.5-13.6,4.4-13.1-21.9-13.1-21.9l8.6-21.8h0Z"/>
      <polygon class="st11" points="1463.3 236.9 1446.5 236.9 1446.5 250.6 1453.8 254.8 1462.9 251.3 1463.3 236.9"/>
      <path class="st10" d="M1498.6,302.4s-6.8-2.6-10.7-1.6c-2.2.6-6.2,8.2-3.7,9.4,2.5,1.2,5.3-2.9,8.4-2.2,3.1.8,6.9,5.3,10.7-1.9l-4.7-3.7h0Z"/>
      <path class="st10" d="M1498.2,301.5s-2.7-1.2-3.8-2c-1.2-.8-1.9.6,0,2s2.6.8,2.6.8l1.2-.8h0Z"/>
      <path class="st10" d="M1405.6,300.7s7.8-3.7,9.4.5-1.2,7.6-3.7,6.8c-2.6-.8-7.2-3.6-5.6-7.2h-.1Z"/>
      <path class="st14" d="M1483.8,250.9l-.6-.6s7.8-8.3,8.6-19.8c.2-3.3-1.6-6.6-4.5-8.1-2.7-1.4-5.9-.9-8.5,1.4-6.3,5.3-4.7,24-4.7,24.2h-.9s-.4-4.8,0-10.2c.5-7.4,2.3-12.3,5-14.6,2.9-2.5,6.3-3,9.5-1.4s5.2,5.2,5,8.9c-.8,11.8-8.7,20.2-8.8,20.3h0Z"/>
      <path class="st14" d="M1472.3,248c0-.7.6-1.2,1.3-1.1.7,0,1.2.6,1.1,1.3,0,.7-.6,1.2-1.3,1.1s-1.2-.6-1.1-1.3Z"/>
      <path class="st14" d="M1482.1,250.5c0-.7.6-1.2,1.3-1.1.7,0,1.2.6,1.1,1.3,0,.7-.6,1.2-1.3,1.1-.7,0-1.2-.6-1.1-1.3Z"/>
      <path class="st14" d="M1447.9,225.3c-.5-1.5.3-3.1,1.8-3.6s3.1.3,3.6,1.8-.3,3.1-1.8,3.6-3.1-.3-3.6-1.8Z"/>
      <path class="st8" d="M1068.8,475.6h18.2c0-.9-.6-3.9-1.4-6.5-.3-.9-.6-1.8-1-2.6-1.8-3.5-13-1.3-13-1.3,0,0-1,.9-1.8,4.3-.4,1.5-.7,3.5-.9,6.1h0Z"/>
      <path class="st1" d="M1102.3,196.5s14.5,2.6,17.8,11.1,21.8,146.8,21.8,146.8c0,0-9.2,7.2-28.8,4.6-19.7-2.6-10.7-162.6-10.7-162.6h-.1Z"/>
      <path class="st8" d="M1123.8,470.4c0,2.5.4,4.8,1.3,5.8h36c-.5-1.3-1.8-3.2-5.4-3.9-4.2-.7-10.8-2.7-14.6-6.8-1.4-1.4-2.4-3.1-2.8-5.1-1.7-7.5-14,2.3-14,2.3,0,0-.5,4-.4,7.7h0Z"/>
      <path class="st14" d="M1139.3,465c-4,1.3-11.7,5.2-16.6,3.4-3.2-1.2-20.8-52.2-21.9-74.5,0-1.6-.4-3.9-.9-6.7-1-5.8-2.9-13.7-5-22.4-5.6-23.4-13.3-52.7-13.1-62,.3-14.5,43.3-3.1,43.3-3.1,0,0,3,11.9,3.6,29.2,1.2,34.2,4.4,92.1,13.1,132.2.4,1.7-.8,3.4-2.4,3.9h0Z"/>
      <path class="st14" d="M1109.5,302.8l-22.7,164.8s-10,2.4-17.8.5c0,0-6.7-87.7-6.1-108.9.5-21.2-4.8-56.7,1.2-60.6s45.4,4.2,45.4,4.2h0Z"/>
      <path class="st3" d="M1061.2,204.1s23.9-15.4,41-7.6c2.7,1.3,5.9,4.8,8.1,7.2,6.2,6.8,18.3,115.3,18.3,115.3,0,0-34.4,11.7-67.4-4v-111h0Z"/>
      <path class="st1" d="M1103.6,196.1s24.2,9.9,27.5,17.6c3.3,7.6,14,54.4,14,59.9s-18.5,1.2-21.5-7.6c-2.5-7.3-10.8-29.9-15.3-44.2l-4.6-25.6h0Z"/>
      <path class="st12" d="M1098.6,203.7c-5.3,1-13.1,0-18.7-3.8,2.6-6.1,3.6-11,4-14.1v-.5c.2-1.6,0-2.7,0-3.2h13.6s3.7,1.7,3.7,2.9v1.8c0,1.6,0,2.9.2,4.1.3,3.8.7,5.6.7,5.6,0,0,1.7,6.1-3.6,7.2h.1Z"/>
      <path class="st4" d="M1101.5,190.9c-10.4,2-16.3-3.6-17.7-5.1-.2-.2-.3-.3-.3-.3,0,0,.2,0,.4-.1,3.9-1.6,12.6-.3,17.5,1.5,0,1.6,0,2.9.2,4.1h0Z"/>
      <path class="st12" d="M1080.5,179.8c1.8,9.9,14.7,9.6,20.3,9,1.6-.2,2.6-.4,2.6-.4,1.8-.5,2.7-3.2,3.2-6.9.9-7.2-.2-17.7-1.4-20.4-1.8-4.1-5.3-8.5-18.2-5.3-12.9,3.2-8.7,11.2-6.3,24h-.2Z"/>
      <path class="st8" d="M1105.5,155.6c-1.8-2.4-5.5-5.4-8.9-7.3-7.3-4-16.7.1-16.7.1-10.6,4.6-13.3,12.7-7.7,25.3,5.9,13.3,11.6,11.8,11.6,11.8,0,0-1.2-.8-1.1-4.9v-.6c0-.9-.2-1.7-.9-2.3-1.3-1.2-1.9-4.7-.9-5.7,1.3-1.2,3.2.3,3.8,1.4.5.8,1.4,1.1,2.3.5,3.3-2.1,1.2-6.3,4.3-8.8,3.2-2.6,9.5-.4,14.2-2.4,6.2-2.3,1.3-5.4,0-7.2h0Z"/>
      <path class="st1" d="M1106.9,364.6c-2.1.5-4.1,1-6.2,1.3-1.8.3-3.6.5-5.4.7-10.2.9-20.5-.5-32.5-4-2.7-.8-5.5-1.7-8.4-2.6-.3,0,.8-31.9,2.1-64.6,0-3.4.3-6.8.4-10.1,0-1.4,0-2.8.2-4.3,1.2-29,2.3-55.1,2.5-56.5.5-3.2,1.1-5.9,1.6-8.3,1.6-6.9,3.7-10.6,8.1-13.9.5-.3,4-2.1,7.1-3.7s4.9-2.4,4.9-2.4h0c1,.5,2.3,2.9,3.6,6.2,2.4,6.1,5,15.5,6.8,22.5h0c1.2,4.5,2,8,2.2,9,.4,1.7.9,5,1.5,9.5.9,6.1,1.8,14.3,2.9,23.7,0,.9.2,1.9.3,2.9,0,1.1.3,2.3.4,3.4v1.1c.4,3.7.8,7.5,1.2,11.4.4,3.2,5.2,5.5,5.5,8.8.2,1.9.6,19.6,1.1,25.3.4,4.1,0,42.7,0,44.6h.1Z"/>
      <path class="st2" d="M1071.7,236.1s-.8,29.3,21.2,32.9,7.4,4.5,7.4,4.5c0,0-41.4-1.8-42-2.8-.7-1.1,13.5-34.5,13.5-34.5h0Z"/>
      <path class="st2" d="M1090.3,281.5s-.4.3-1.2.8h0c-3.4,2.2-13.3,8-27.8,11.9-1.5.4-3.1.8-4.7,1.2,0-3.4.3-6.8.4-10.1-1.9-.1-3.7-.4-5.4-.8,0-.5,0-.9.2-1.4,1.8-.8,3.7-1.5,5.4-2.2,1.4-.6,2.8-1.1,4.1-1.6,5.9-2.3,10.4-3.8,10.4-3.8l17.6,5.6,1,.3h0Z"/>
      <path class="st1" d="M1094.9,281s-2.3.6-5.9,1.3h0c-6.7,1.4-17.8,3.2-27.8,3.1-1.5,0-2.9,0-4.3-.2-1.9-.1-3.7-.4-5.4-.8-3.6-.8-6.7-2.1-8.7-4.1-14.9-15.1,8.1-69.4,12.9-74.7,5.6-6.2,15.9-8.3,21.6-9.1h.7c2-.2,3.3-.3,3.3-.3h0s-.5,1.4-1.2,3.9c-.3.9-.6,2-1,3.2-3.5,11.4-10.2,33.9-13.2,46.5-1.1,4.6-1.7,8-1.4,9,1.2,4.3,13.1,6.5,20.7,7.5,3.2.4,5.6.6,6.1.6h0l.5,1.8,1,4.3,1,4.2.9,3.6h0l.2.2h0Z"/>
      <polygon class="st8" points="1136.3 307 1085.3 304.8 1095.7 241.3 1146.7 243.4 1136.3 307"/>
      <path class="st12" d="M1091.5,266.9s9.9-.7,10.4,1.6c1.2,5.4-8.6,9.8-11.7,9.5-3.2-.3-1-11.5,1.3-11.2h0Z"/>
      <path class="st12" d="M1143.9,256.3s-9.5-3-10.5-.9c-2.4,5,6,11.5,9.1,12s3.6-10.9,1.4-11.1h0Z"/>
      <path class="st2" d="M1082.3,193s-4.2,2-6.3,5c0,0,15.6,27.1,15.5,26.9,0-.3-5.3-28.4-9.3-31.9h.1Z"/>
      <path class="st2" d="M1101.8,193.3c1.4.5,4,3.2,4.6,4.7l1.8,23.7s-4-17.4-6-25.2c-.5-2-.4-2.6-.5-3.2h0Z"/>
      <path class="st2" d="M1112.6,242s.4-1.8,2.7-1.6c2.3.2,15.3.9,15.3.9,0,0,2.5,0,2.3,1.6l-20.4-.9h0Z"/>
      <path class="st3" d="M1097.6,182.1s1.7,1.5,4.4,1.1c1.6-.3,2.5-2.4,2.5-2.4,0,0-3.1-.5-6.9,1.3h0Z"/>
      <rect class="st9" x="1067.6" y="215.3" width="13.2" height="5.9"/>
    </g>
  </g>
</svg>